<svg width="138" height="41" viewBox="0 0 138 41" fill="none" xmlns="http://www.w3.org/2000/svg">
<path d="M13.708 8.68257C13.7831 7.47382 13.708 6.22912 13.9643 5.0653C14.7115 1.71314 17.9963 -0.443734 21.3562 0.0775132C24.8709 0.625721 27.2273 3.5465 27.0416 7.13681C26.8559 10.7496 24.2122 13.4592 20.7108 13.576C19.1811 13.6254 17.6514 13.576 16.1218 13.5895C14.2031 13.6075 13.646 14.1691 13.6107 16.0879C13.5798 17.8852 13.6681 19.6917 13.4736 21.4711C13.0758 25.1333 9.96782 27.5777 6.31169 27.2677C2.65555 26.9576 0.210756 24.0369 0.303596 20.096C0.387595 16.6001 3.15511 13.8366 6.69632 13.7468C8.22597 13.7063 9.75562 13.7468 11.2853 13.7333C13.1067 13.7153 13.7522 13.0458 13.7787 11.1675C13.7919 10.3407 13.7787 9.51387 13.7787 8.69156H13.708V8.68257Z" fill="#47499A"/>
<path d="M27.2539 22.4013C27.2539 21.7676 27.2495 21.1386 27.2539 20.505C27.3025 16.5237 30.1009 13.7018 33.9649 13.7378C37.7271 13.7737 40.5345 16.6855 40.5212 20.5409C40.508 24.3918 37.7404 27.2228 33.9119 27.2767C32.4795 27.2991 31.0426 27.2767 29.6102 27.2857C27.6385 27.2991 27.0903 27.8653 27.0594 29.9144C27.0328 31.613 27.1124 33.3205 26.9709 35.01C26.6924 38.2992 24.1504 40.7572 20.954 40.9819C17.6205 41.2156 14.7558 39.171 13.9468 35.9806C12.837 31.5994 15.8522 27.5373 20.3085 27.4339C21.8382 27.398 23.3679 27.4429 24.8975 27.425C26.5597 27.4026 27.2052 26.7374 27.2495 25.0165C27.2716 24.1402 27.2495 23.2685 27.2495 22.3923L27.2539 22.4013Z" fill="#D8B8F3"/>
<path d="M122.846 30.757V9.7619H126.671V27.4578H137.438V30.757H122.846Z" fill="#081F3B"/>
<path d="M117.012 30.757H112.893L108.685 24.6085C108.42 24.6384 108.156 24.6384 107.891 24.6384H103.242V30.757H99.4178V9.7619H107.891C113.304 9.7619 116.658 12.5812 116.658 17.2301C116.658 20.4093 115.069 22.7489 112.274 23.8586L117.012 30.757ZM112.804 17.2301C112.804 14.5907 111.069 13.0611 107.714 13.0611H103.242V21.4291H107.714C111.069 21.4291 112.804 19.8695 112.804 17.2301Z" fill="#081F3B"/>
<path d="M82.815 30.757V13.0611H75.9892V9.7619H93.4656V13.0611H86.6398V30.757H82.815Z" fill="#081F3B"/>
<path d="M63.0601 9.7619C66.502 9.76193 69.3854 10.9317 71.3279 13.1811L68.9157 15.5806C67.2967 13.931 65.4427 13.1811 63.2371 13.1811C58.8528 13.1811 55.7641 16.2105 55.7641 20.5594C55.7641 24.8184 58.8528 27.9377 63.2076 27.9377C64.6702 27.9377 66.1023 27.641 67.4209 26.8713L71.0635 28.6133V28.6877C68.9156 30.4573 65.914 31.3569 63.001 31.3569C56.6165 31.3569 51.9099 26.8279 51.9099 20.5594C51.9099 14.2908 56.6165 9.7619 63.0601 9.7619Z" fill="#081F3B"/>
<path d="M110.082 37.8997V34.7533H108.901V34.1667H111.923V34.7533H110.743V37.8997H110.082Z" fill="#081F3B"/>
<path d="M113.828 37.3184H115.834V37.8997H113.168V34.1667H115.763V34.7479H113.828V35.7185H115.545V36.2892H113.828V37.3184Z" fill="#081F3B"/>
<path d="M117.079 37.8997V34.1667H117.731V37.3131H119.567V37.8997H117.079Z" fill="#081F3B"/>
<path d="M121.472 37.3184H123.478V37.8997H120.812V34.1667H123.407V34.7479H121.472V35.7185H123.188V36.2892H121.472V37.3184Z" fill="#081F3B"/>
<path d="M127.566 37.122V35.9917H128.229V37.4383C127.836 37.7442 127.286 37.8997 126.753 37.8997C125.584 37.8997 124.722 37.1168 124.722 36.0332C124.722 34.9496 125.584 34.1667 126.764 34.1667C127.394 34.1667 127.922 34.3689 128.278 34.7577L127.836 35.1725C127.539 34.8873 127.2 34.7577 126.796 34.7577C125.993 34.7577 125.428 35.2814 125.428 36.0332C125.428 36.7694 125.993 37.3086 126.791 37.3086C127.06 37.3086 127.324 37.2568 127.566 37.122Z" fill="#081F3B"/>
<path d="M132.544 37.8997H131.836L131.114 36.8064C131.068 36.8118 131.023 36.8118 130.977 36.8118H130.179V37.8997H129.522V34.1667H130.977C131.907 34.1667 132.483 34.668 132.483 35.4945C132.483 36.0598 132.21 36.4758 131.73 36.6731L132.544 37.8997ZM131.821 35.4945C131.821 35.0252 131.523 34.7533 130.947 34.7533H130.179V36.2411H130.947C131.523 36.2411 131.821 35.9638 131.821 35.4945Z" fill="#081F3B"/>
<path d="M136.998 37.8997L136.638 37.0358H134.834L134.479 37.8997H133.788L135.411 34.1667H136.071L137.699 37.8997H136.998ZM135.061 36.4918H136.416L135.736 34.8599L135.061 36.4918Z" fill="#081F3B"/>
<path d="M103.794 37.8997V36.2572L102.544 34.1916H103.316L104.272 35.8042H103.998L104.949 34.1916H105.72L104.476 36.2522V37.8997H103.794Z" fill="#081F3B"/>
<path d="M99.3021 37.8997V34.1915H100.865C101.111 34.1915 101.32 34.2347 101.492 34.321C101.668 34.4039 101.802 34.5234 101.895 34.6793C101.992 34.832 102.04 35.0178 102.04 35.2368C102.04 35.406 101.993 35.5653 101.9 35.7146C101.811 35.8606 101.666 35.9817 101.467 36.078V35.7644C101.65 35.8341 101.794 35.9204 101.9 36.0232C102.007 36.1261 102.081 36.2406 102.124 36.3667C102.167 36.4928 102.189 36.6255 102.189 36.7649C102.189 37.1199 102.071 37.3986 101.836 37.6011C101.603 37.8001 101.28 37.8997 100.865 37.8997H99.3021ZM99.9791 37.3024H100.935C101.111 37.3024 101.25 37.2543 101.353 37.1581C101.459 37.0585 101.512 36.9274 101.512 36.7649C101.512 36.6023 101.459 36.4712 101.353 36.3716C101.25 36.2721 101.111 36.2223 100.935 36.2223H99.9791V37.3024ZM99.9791 35.63H100.9C101.039 35.63 101.15 35.5902 101.233 35.5106C101.316 35.4276 101.358 35.3214 101.358 35.192C101.358 35.0626 101.316 34.9597 101.233 34.8834C101.15 34.8071 101.039 34.7689 100.9 34.7689H99.9791V35.63Z" fill="#081F3B"/>
</svg>
